{"title":"Iggy Azalea Ft. Rita Ora - Black Widow [Music Video] 1080p [Sbyk","uid":11050516,"size":93793072,"categoryP":"video","categoryS":"music_videos","magnet":"?xt=urn:btih:7792ff2760eedf0861fe215668cc0495806d38ad&amp;dn=Iggy+Azalea+Ft.+Rita+Ora+-+Black+Widow+%5BMusic+Video%5D+1080p+%5BSbyk&amp;tr=udp%3A%2F%2Ftracker.openbittorrent.com%3A80&amp;tr=udp%3A%2F%2Fopen.demonii.com%3A1337&amp;tr=udp%3A%2F%2Ftracker.coppersurfer.tk%3A6969&amp;tr=udp%3A%2F%2Fexodus.desync.com%3A6969","seeders":0,"leechers":0,"uploader":"Sbyky","files":1,"time":1411020375,"description":"General\nComplete name                            : Iggy Azalea Ft. Rita Ora - Black Widow [Music Video] 1080p [Sbyky].MP4\nFormat                                   : MPEG-4\nFormat profile                           : Base Media\nCodec ID                                 : isom\nFile size                                : 89.4 MiB\nDuration                                 : 5mn 30s\nOverall bit rate mode                    : Variable\nOverall bit rate                         : 2 273 Kbps\nEncoded date                             : UTC 2014-08-28 05:38:45\nTagged date                              : UTC 2014-08-28 05:38:45\n\nVideo\nID                                       : 1\nFormat                                   : AVC\nFormat/Info                              : Advanced Video Codec\nFormat profile                           : &lt;a class=&quot;__cf_email__&quot; href=&quot;/cdn-cgi/l/email-protection&quot; data-cfemail=&quot;b8f0d1dfd0f8f48c9688&quot;&gt;[email&amp;#160;protected]&lt;/a&gt;&lt;script data-cfhash='f9e31' type=&quot;text/javascript&quot;&gt;\n/* &lt;![CDATA[ */!function(){try{var t=&quot;currentScript&quot;in document?document.currentScript:function(){for(var t=document.getElementsByTagName(&quot;script&quot;),e=t.length;e--;)if(t[e].getAttribute(&quot;data-cfhash&quot;))return t[e]}();if(t&amp;&amp;t.previousSibling){var e,r,n,i,c=t.previousSibling,a=c.getAttribute(&quot;data-cfemail&quot;);if(a){for(e=&quot;&quot;,r=parseInt(a.substr(0,2),16),n=2;a.length-n;n+=2)i=parseInt(a.substr(n,2),16)^r,e+=String.fromCharCode(i);e=document.createTextNode(e),c.parentNode.replaceChild(e,c)}t.parentNode.removeChild(t);}}catch(u){}}()/* ]]&gt; */&lt;/script&gt;\nFormat settings, CABAC                   : Yes\nFormat settings, ReFrames                : 3 frames\nCodec ID                                 : avc1\nCodec ID/Info                            : Advanced Video Coding\nDuration                                 : 5mn 29s\nBit rate                                 : 2 144 Kbps\nWidth                                    : 1 920 pixels\nHeight                                   : 1 080 pixels\nDisplay aspect ratio                     : 16:9\nFrame rate mode                          : Variable\nFrame rate                               : 23.976 fps\nMinimum frame rate                       : 23.974 fps\nMaximum frame rate                       : 23.981 fps\nColor space                              : YUV\nChroma subsampling                       : 4:2:0\nBit depth                                : 8 bits\nScan type                                : Progressive\nBits/(Pixel*Frame)                       : 0.043\nStream size                              : 84.3 MiB (94%)\nEncoded date                             : UTC 2014-08-28 05:38:45\nTagged date                              : UTC 2014-08-28 05:38:45\n\nAudio\nID                                       : 2\nFormat                                   : AAC\nFormat/Info                              : Advanced Audio Codec\nFormat profile                           : LC\nCodec ID                                 : 40\nDuration                                 : 5mn 30s\nBit rate mode                            : Variable\nBit rate                                 : 126 Kbps\nChannel(s)                               : 2 channels\nChannel positions                        : Front: L R\nSampling rate                            : 44.1 KHz\nCompression mode                         : Lossy\nStream size                              : 4.94 MiB (6%)\nEncoded date                             : UTC 2014-08-28 04:12:10\nTagged date                              : UTC 2014-08-28 04:12:10\n\nShared By Sbyky\n","torrent":{"xt":"urn:btih:7792ff2760eedf0861fe215668cc0495806d38ad","amp;dn":"Iggy+Azalea+Ft.+Rita+Ora+-+Black+Widow+%5BMusic+Video%5D+1080p+%5BSbyk","amp;tr":["udp%3A%2F%2Ftracker.openbittorrent.com%3A80","udp%3A%2F%2Fopen.demonii.com%3A1337","udp%3A%2F%2Ftracker.coppersurfer.tk%3A6969","udp%3A%2F%2Fexodus.desync.com%3A6969"],"infoHash":"7792ff2760eedf0861fe215668cc0495806d38ad","infoHashBuffer":{"type":"Buffer","data":[119,146,255,39,96,238,223,8,97,254,33,86,104,204,4,149,128,109,56,173]},"announce":[],"urlList":[]}}